<svg width="32" height="32" viewBox="0 0 32 32" fill="none" xmlns="http://www.w3.org/2000/svg">
<path d="M16.0013 2.66675C23.3651 2.66675 29.3347 8.63628 29.3347 16.0001C29.3347 23.3638 23.3651 29.3334 16.0013 29.3334C13.5561 29.3334 11.2647 28.6753 9.29448 27.5263L2.67354 29.3334L4.47616 22.7087C3.32658 20.7382 2.66797 18.4461 2.66797 16.0001C2.66797 8.63628 8.6375 2.66675 16.0013 2.66675ZM11.1898 9.74452C11.0172 9.75664 10.8481 9.79877 10.6941 9.87756C10.5786 9.93667 10.4713 10.0221 10.3028 10.1812C10.1436 10.3315 10.0514 10.4627 9.95425 10.5892C9.46132 11.231 9.19638 12.0188 9.2013 12.8281C9.20398 13.4822 9.3739 14.1179 9.64225 14.7115C10.1864 15.9153 11.0838 17.1878 12.2692 18.3679C12.554 18.6514 12.833 18.9379 13.1338 19.2027C14.6051 20.4982 16.3584 21.4323 18.2543 21.931C18.2543 21.931 19.0009 22.0457 19.0119 22.0463C19.2592 22.0597 19.5061 22.0418 19.7537 22.0291C20.1421 22.0091 20.5213 21.9041 20.8645 21.7213C21.0852 21.6038 21.1896 21.5454 21.3748 21.4286C21.3748 21.4286 21.4316 21.3902 21.5412 21.3086C21.7212 21.1745 21.8324 21.0801 21.9821 20.9246C22.0925 20.8099 22.1875 20.6745 22.2608 20.5218C22.3651 20.3042 22.47 19.8889 22.5117 19.5439C22.5436 19.2805 22.534 19.1365 22.5305 19.0473C22.5248 18.9038 22.4063 18.7562 22.2764 18.6935L21.5011 18.345C21.5011 18.345 20.3417 17.8405 19.6327 17.517C19.5588 17.4833 19.478 17.4677 19.3968 17.4627C19.2189 17.4518 19.0196 17.4982 18.8928 17.6318C18.8861 17.6291 18.7979 17.7054 17.8332 18.8741C17.78 18.9377 17.6553 19.0759 17.4397 19.063C17.4072 19.0607 17.3748 19.0561 17.3432 19.0478C17.2559 19.0247 17.1708 18.9943 17.0876 18.9591C16.9227 18.8891 16.8648 18.8626 16.7521 18.8141C15.9824 18.4778 15.276 18.0279 14.6516 17.4774C14.4841 17.3299 14.3284 17.1711 14.1679 17.0155C13.6076 16.4725 13.1489 15.8949 12.8077 15.3251C12.7891 15.2941 12.7604 15.2491 12.7294 15.1989C12.6736 15.1081 12.612 15.0001 12.5927 14.9259C12.5432 14.7298 12.6746 14.5722 12.6746 14.5722C12.6746 14.5722 12.9992 14.2174 13.15 14.0245C13.295 13.8387 13.4203 13.6571 13.5 13.5277C13.6571 13.2752 13.7068 13.0142 13.6243 12.8129C13.2502 11.9009 12.8642 10.9939 12.4665 10.092C12.388 9.91401 12.1545 9.78469 11.9421 9.76017C11.8702 9.75187 11.7983 9.74352 11.7261 9.73877C11.5474 9.73005 11.3683 9.73197 11.1898 9.74452Z" fill="#13E50F"/>
</svg>
