<svg width="27" height="27" viewBox="0 0 27 27" fill="none" xmlns="http://www.w3.org/2000/svg">
<path d="M13.3334 26.6667C5.96953 26.6667 0 20.6971 0 13.3333C0 5.96953 5.96953 0 13.3334 0C20.6971 0 26.6667 5.96953 26.6667 13.3333C26.6667 20.6971 20.6971 26.6667 13.3334 26.6667ZM9.18687 14.8944L9.20373 14.8837C9.97671 17.4356 10.3632 18.7116 10.3632 18.7116C10.5129 19.1256 10.7187 19.1995 10.9684 19.1657C11.218 19.1319 11.3506 18.9968 11.5135 18.8396C11.5135 18.8396 12.0419 18.3296 13.0987 17.3097L16.4999 19.8264C17.1196 20.1688 17.5671 19.9921 17.721 19.2503L19.9314 8.82188C20.1754 7.85123 19.7474 7.46192 18.9947 7.77005L6.01732 12.7828C5.13197 13.1387 5.13625 13.634 5.85613 13.8548L9.18687 14.8944Z" fill="#0595E6"/>
</svg>
