<svg width="24" height="24" viewBox="0 0 24 24" fill="none" xmlns="http://www.w3.org/2000/svg">
<path d="M8.488 10.2427C9.73911 12.4406 11.5594 14.2609 13.7573 15.512L14.936 13.8613C15.1255 13.5959 15.4058 13.4092 15.7237 13.3364C16.0417 13.2637 16.3752 13.31 16.6613 13.4667C18.5471 14.4972 20.6296 15.117 22.772 15.2853C23.1064 15.3118 23.4185 15.4634 23.6461 15.7098C23.8737 15.9561 24 16.2793 24 16.6147V22.564C24.0001 22.8941 23.8777 23.2125 23.6565 23.4576C23.4353 23.7027 23.1311 23.857 22.8027 23.8907C22.096 23.964 21.384 24 20.6667 24C9.25333 24 0 14.7467 0 3.33333C0 2.616 0.036 1.904 0.109333 1.19733C0.143006 0.86893 0.297312 0.564694 0.542386 0.343512C0.78746 0.12233 1.10587 -7.11437e-05 1.436 3.1023e-08H7.38533C7.72075 -4.20247e-05 8.04386 0.126335 8.29024 0.353934C8.53662 0.581533 8.68817 0.893631 8.71467 1.228C8.88297 3.37039 9.50277 5.45291 10.5333 7.33867C10.69 7.62475 10.7363 7.95832 10.6636 8.27626C10.5908 8.5942 10.4041 8.87446 10.1387 9.064L8.488 10.2427ZM5.12533 9.36667L7.65867 7.55733C6.93971 6.00546 6.44714 4.35845 6.196 2.66667H2.68C2.672 2.888 2.668 3.11067 2.668 3.33333C2.66667 13.2747 10.7253 21.3333 20.6667 21.3333C20.8893 21.3333 21.112 21.3293 21.3333 21.32V17.804C19.6415 17.5529 17.9945 17.0603 16.4427 16.3413L14.6333 18.8747C13.9049 18.5916 13.1973 18.2575 12.516 17.8747L12.4387 17.8307C9.82344 16.3423 7.65771 14.1766 6.16933 11.5613L6.12533 11.484C5.74254 10.8027 5.40838 10.0951 5.12533 9.36667Z" fill="#F7A420"/>
</svg>
