<svg width="27" height="27" viewBox="0 0 27 27" fill="none" xmlns="http://www.w3.org/2000/svg">
<path d="M13.3334 0C20.6971 0 26.6667 5.96953 26.6667 13.3333C26.6667 20.6971 20.6971 26.6667 13.3334 26.6667C10.8882 26.6667 8.59671 26.0085 6.62651 24.8596L0.00557359 26.6667L1.80819 20.042C0.658614 18.0715 0 15.7793 0 13.3333C0 5.96953 5.96953 0 13.3334 0ZM8.52179 7.07777C8.34927 7.08989 8.18012 7.13203 8.02612 7.21081C7.91059 7.26992 7.80333 7.35535 7.63481 7.51448C7.47568 7.66473 7.38345 7.79596 7.28628 7.92248C6.79335 8.56427 6.52841 9.35207 6.53333 10.1613C6.53601 10.8155 6.70593 11.4512 6.97428 12.0448C7.51845 13.2485 8.41587 14.5211 9.60128 15.7012C9.88603 15.9847 10.165 16.2712 10.4658 16.536C11.9371 17.8315 13.6904 18.7656 15.5863 19.2643C15.5863 19.2643 16.333 19.3789 16.3439 19.3796C16.5912 19.3929 16.8382 19.3751 17.0858 19.3624C17.4742 19.3424 17.8534 19.2373 18.1966 19.0545C18.4172 18.9371 18.5216 18.8787 18.7068 18.7619C18.7068 18.7619 18.7636 18.7235 18.8732 18.6419C19.0532 18.5077 19.1644 18.4133 19.3142 18.2579C19.4246 18.1432 19.5195 18.0077 19.5928 17.8551C19.6971 17.6375 19.802 17.2221 19.8438 16.8772C19.8756 16.6137 19.866 16.4697 19.8626 16.3805C19.8568 16.2371 19.7383 16.0895 19.6084 16.0268L18.8331 15.6783C18.8331 15.6783 17.6738 15.1737 16.9647 14.8503C16.8908 14.8165 16.81 14.8009 16.7288 14.796C16.551 14.7851 16.3516 14.8315 16.2248 14.9651C16.2182 14.9624 16.1299 15.0387 15.1652 16.2073C15.112 16.2709 14.9874 16.4092 14.7718 16.3963C14.7392 16.394 14.7068 16.3893 14.6752 16.3811C14.5879 16.358 14.5028 16.3276 14.4196 16.2924C14.2547 16.2224 14.1968 16.1959 14.0842 16.1473C13.3144 15.8111 12.608 15.3612 11.9836 14.8107C11.8162 14.6632 11.6604 14.5044 11.4999 14.3488C10.9396 13.8057 10.4809 13.2281 10.1397 12.6584C10.1211 12.6273 10.0924 12.5824 10.0615 12.5321C10.0056 12.4413 9.94407 12.3333 9.92476 12.2592C9.8752 12.0631 10.0067 11.9055 10.0067 11.9055C10.0067 11.9055 10.3312 11.5507 10.482 11.3577C10.6271 11.172 10.7523 10.9904 10.832 10.8609C10.9891 10.6084 11.0388 10.3475 10.9563 10.1462C10.5822 9.2342 10.1963 8.32715 9.79851 7.42525C9.72 7.24727 9.48649 7.11795 9.27415 7.09343C9.20223 7.08512 9.13036 7.07677 9.05815 7.07203C8.8794 7.06331 8.70029 7.06523 8.52179 7.07777Z" fill="#13E50F"/>
</svg>
