<svg width="32" height="32" viewBox="0 0 32 32" fill="none" xmlns="http://www.w3.org/2000/svg">
<path d="M16.0013 29.3332C8.6375 29.3332 2.66797 23.3636 2.66797 15.9998C2.66797 8.63604 8.6375 2.6665 16.0013 2.6665C23.3651 2.6665 29.3347 8.63604 29.3347 15.9998C29.3347 23.3636 23.3651 29.3332 16.0013 29.3332ZM11.8548 17.5609L11.8717 17.5502C12.6447 20.1021 13.0312 21.3781 13.0312 21.3781C13.1808 21.7921 13.3867 21.866 13.6364 21.8322C13.886 21.7984 14.0185 21.6633 14.1815 21.5061C14.1815 21.5061 14.7099 20.9961 15.7667 19.9762L19.1679 22.4929C19.7876 22.8353 20.2351 22.6586 20.3889 21.9168L22.5993 11.4884C22.8433 10.5177 22.4153 10.1284 21.6627 10.4366L8.68529 15.4493C7.79994 15.8052 7.80422 16.3005 8.5241 16.5213L11.8548 17.5609Z" fill="white"/>
</svg>
